<svg xmlns="http://www.w3.org/2000/svg" width="20" height="20" viewBox="0 0 20 20">
  <path id="earth" d="M10,0A10,10,0,1,0,20,10,10,10,0,0,0,10,0Zm8.636,9.545H15.455a11.653,11.653,0,0,0-3.527-7.959,8.636,8.636,0,0,1,6.709,7.959ZM9.091,1.818V9.545H5.909C6.041,6.7,7.164,3.409,9.091,1.818Zm0,9.091v7.273C7.3,16.6,6.168,13.455,5.909,10.909Zm1.364,7.273V10.909h3.636a11.612,11.612,0,0,1-3.636,7.273Zm0-8.636V1.818C12.6,3.4,13.941,6.659,14.091,9.545ZM7.8,1.659a11.623,11.623,0,0,0-3.25,7.886H1.386A8.636,8.636,0,0,1,7.8,1.659Zm-6.382,9.25H4.545a11.386,11.386,0,0,0,3.182,7.273,8.2,8.2,0,0,1-6.314-7.273Zm10.4,7.532a12.027,12.027,0,0,0,3.636-7.532h3.182a8.7,8.7,0,0,1-6.818,7.532Z" fill="#fff"/>
</svg>
