<svg xmlns="http://www.w3.org/2000/svg" width="118.221" height="50" viewBox="0 0 118.221 50">
  <g id="footerlogo" transform="translate(-1222.3 -442.445)">
    <path id="Path_1" data-name="Path 1" d="M1280.958,571.895l-58.658,1.494,58.658,1.494,59.563-1.494Z" transform="translate(0 -96.276)" fill="#9e9e9e"/>
    <g id="Group_1" data-name="Group 1" transform="translate(1237.26 483.949)">
      <path id="Path_2" data-name="Path 2" d="M1282.754,609.066v2.875q0,.481.551.481H1285a2.088,2.088,0,0,0,2.124-1.572v2.206h-6.442q.869-.411.869-1.056V605.78q0-.645-.869-1.056h6.067v2.206a2.117,2.117,0,0,0-2.171-1.573h-1.819v3.074h1.913a1.364,1.364,0,0,0,1.115-.633v1.842a1.4,1.4,0,0,0-1.115-.575Z" transform="translate(-1280.677 -604.642)" fill="#9e9e9e"/>
      <path id="Path_3" data-name="Path 3" d="M1320.234,613.055h-.751l-2.676-7.017a2.988,2.988,0,0,0-.974-1.314h2.992a1.1,1.1,0,0,0-.61.892.743.743,0,0,0,.047.258l1.819,5.785,1.854-5.856a.575.575,0,0,0,.012-.117v-.071a1.125,1.125,0,0,0-.622-.892h2.03a4.471,4.471,0,0,0-.74,1.314Z" transform="translate(-1306.824 -604.642)" fill="#9e9e9e"/>
      <path id="Path_4" data-name="Path 4" d="M1356.87,609.066v2.875q0,.481.551.481h1.69a2.088,2.088,0,0,0,2.124-1.572v2.206h-6.443q.868-.411.869-1.056V605.78q0-.645-.869-1.056h6.067v2.206a2.117,2.117,0,0,0-2.171-1.573h-1.819v3.074h1.913a1.364,1.364,0,0,0,1.115-.633v1.842a1.4,1.4,0,0,0-1.115-.575Z" transform="translate(-1335.799 -604.642)" fill="#9e9e9e"/>
      <path id="Path_5" data-name="Path 5" d="M1397.263,610.791a2.965,2.965,0,0,0,1.6,2.265H1397.5q-1.291-.012-1.7-2.112-.293-1.384-1.243-1.619h-.7v2.1a1.611,1.611,0,0,0,.9,1.631h-2.969q.857-.4.857-1.056V605.78q0-.657-.857-1.056h2.359q3.485,0,3.591,2.1,0,2.042-2.453,2.359A2.254,2.254,0,0,1,1397.263,610.791Zm-3.415-5.539v2.922q0,.646.88.646,1.736-.187,1.737-1.784,0-1.748-2.018-1.784Z" transform="translate(-1363.31 -604.642)" fill="#9e9e9e"/>
      <path id="Path_6" data-name="Path 6" d="M1432.01,607.237l-1.338,5.75h-.939l-2.253-7.369a4.85,4.85,0,0,0-.54-.962h2.734q-.762.54-.763,1.033l1.561,5.3,1.455-6.36h.423l1.948,6.595,1.432-5.574q0-.5-.857-1h2.183a4.824,4.824,0,0,0-.5.962l-2.018,7.369h-.927Z" transform="translate(-1389.458 -604.573)" fill="#9e9e9e"/>
      <path id="Path_7" data-name="Path 7" d="M1484.367,608.7a4.616,4.616,0,0,1-.951,3.039,3.371,3.371,0,0,1-2.8,1.162,3.541,3.541,0,0,1-2.911-1.162,4.62,4.62,0,0,1-.95-3.039,4.869,4.869,0,0,1,.939-3.133,3.411,3.411,0,0,1,2.8-1.162,3.569,3.569,0,0,1,2.933,1.162A4.87,4.87,0,0,1,1484.367,608.7Zm-3.755,3.685a1.941,1.941,0,0,0,1.736-.962,5.046,5.046,0,0,0,.622-2.723,4.983,4.983,0,0,0-.7-2.722,2.069,2.069,0,0,0-1.772-.986,1.931,1.931,0,0,0-1.725.962,5.1,5.1,0,0,0-.622,2.746,4.807,4.807,0,0,0,.716,2.687A2.043,2.043,0,0,0,1480.612,612.383Z" transform="translate(-1426.504 -604.403)" fill="#9e9e9e"/>
      <path id="Path_8" data-name="Path 8" d="M1524.394,610.791a2.964,2.964,0,0,0,1.6,2.265h-1.361q-1.29-.012-1.7-2.112-.294-1.384-1.244-1.619h-.7v2.1a1.612,1.612,0,0,0,.9,1.631h-2.969q.857-.4.857-1.056V605.78q0-.657-.857-1.056h2.359q3.486,0,3.591,2.1,0,2.042-2.453,2.359A2.255,2.255,0,0,1,1524.394,610.791Zm-3.415-5.539v2.922q0,.646.88.646,1.737-.187,1.737-1.784,0-1.748-2.019-1.784Z" transform="translate(-1457.862 -604.642)" fill="#9e9e9e"/>
      <path id="Path_9" data-name="Path 9" d="M1560.465,612.422a2.089,2.089,0,0,0,2.136-1.526v2.159H1557q.856-.4.857-1.056V605.78q0-.657-.857-1.056h2.981q-.916.4-.916,1.056v6.184q0,.458.7.458Z" transform="translate(-1486.19 -604.642)" fill="#9e9e9e"/>
      <path id="Path_10" data-name="Path 10" d="M1593.806,604.724a4.136,4.136,0,0,1,3.016,1.138,4.329,4.329,0,0,1,1.021,3.074,4.172,4.172,0,0,1-1.021,2.969,4.073,4.073,0,0,1-3.016,1.15h-3.11q.857-.4.857-1.056V605.78q0-.657-.857-1.056Zm-.059,7.768a2.441,2.441,0,0,0,2.03-1.008,4.055,4.055,0,0,0,.763-2.519,4.51,4.51,0,0,0-.763-2.671,2.348,2.348,0,0,0-2.03-1.055h-.986v6.713q0,.539.786.539Z" transform="translate(-1511.248 -604.642)" fill="#9e9e9e"/>
    </g>
    <path id="Path_11" data-name="Path 11" d="M1385.677,457.485q-4.505-11.7-5.437-13.691c-.2-.419-.425-.627-.665-.627q-.5,0-1.493.067c-.667.044-1.17.065-1.513.065s-.89-.031-1.606-.095-1.244-.095-1.587-.095c-.2,0-.381.24-.533.722q-.4,1.257-5.058,13.861-4.3,11.657-4.3,12.152,0,.55,2.909.551a31.881,31.881,0,0,0,4.334-.153c.343-.088.634-.659.876-1.711a1.744,1.744,0,0,1,2.282-2.185c-.105-.071-.208-.147-.305-.227a3.354,3.354,0,0,1-1.305-2.513V462.39h8.712l0,1.217a3.44,3.44,0,0,1-1.623,2.751,8.266,8.266,0,0,1,1.5.1q.359.189,1.008,2.928a1.022,1.022,0,0,0,.817.855,24.01,24.01,0,0,0,3.5.153,21.768,21.768,0,0,0,3.536-.153c.318-.088.476-.246.476-.476Q1390.2,469.256,1385.677,457.485Zm-7.484,3.921-.008-.016-.707-1.435-.878-1.785-.865,1.76h0l-.718,1.461-.008.017a3.062,3.062,0,0,1-1.748-3.135c0-2.492,3.34-7.064,3.34-7.064s3.343,4.572,3.343,7.064A3.063,3.063,0,0,1,1378.192,461.407Z" transform="translate(-105.007 -0.495)" fill="#9e9e9e"/>
    <path id="Path_12" data-name="Path 12" d="M1254.28,469.141q.037.514-.533.513a14.108,14.108,0,0,1-2.082-.418q-1.721-.418-2.12-.57a20.853,20.853,0,0,1-7.625,1.559,12.785,12.785,0,0,1-9.64-3.917,13.474,13.474,0,0,1-3.727-9.754,14.3,14.3,0,0,1,3.613-10,12.462,12.462,0,0,1,9.678-4.107,13.549,13.549,0,0,1,5.438,1.1,10.312,10.312,0,0,1,4.335,3.423,1.454,1.454,0,0,1,.323.646q0,.609-1.7,2.729t-2.2,2.12a3.707,3.707,0,0,1-.875-.78,8.045,8.045,0,0,0-1.9-1.445,6.62,6.62,0,0,0-3.194-.78,5.452,5.452,0,0,0-4.525,2.13,7.6,7.6,0,0,0-1.559,4.887,7.089,7.089,0,0,0,1.616,4.906,6.033,6.033,0,0,0,4.735,1.863,11.7,11.7,0,0,0,4.335-.97q-.057-.628-.343-3.194a26.949,26.949,0,0,1-.247-3.194q0-.361.247-.437a.89.89,0,0,1,.3-.038q.551,0,1.663.1t1.683.1q.609,0,1.825-.086t1.825-.086q.475,0,.475.628,0,.913-.1,2.757t-.1,2.757q0,2.453.361,7.339Z" transform="translate(-4.651 0)" fill="#9e9e9e"/>
    <path id="Path_13" data-name="Path 13" d="M1510.1,457.518q0,2.244.114,6.75t.114,6.75q0,.381-.171.476a4,4,0,0,1-.495.076,28.432,28.432,0,0,1-3.308.152,24.226,24.226,0,0,1-3.537-.152q-.552-.114-.551-.59,0,.3.171-3.347.342-7.7.343-10.115,0-2.035-.133-6.1t-.133-6.1q0-.418.437-.418.589,0,1.778.057t1.778.057q.589,0,1.74-.057t1.74-.057q.551,0,.552.418,0,2.035-.219,6.1T1510.1,457.518Z" transform="translate(-208.221 -1.821)" fill="#9e9e9e"/>
    <path id="Path_14" data-name="Path 14" d="M1593.174,469.77q0,.342-.475.476a21.847,21.847,0,0,1-3.537.152,24.045,24.045,0,0,1-3.5-.152,1.026,1.026,0,0,1-.818-.856q-.646-2.738-1.008-2.928a42.04,42.04,0,0,0-5.1-.133,15.023,15.023,0,0,0-3.441.171,5.227,5.227,0,0,0-.723,2.035q-.361,1.578-.874,1.711a32,32,0,0,1-4.335.152q-2.91,0-2.91-.552,0-.494,4.3-12.15,4.658-12.607,5.057-13.862.229-.722.533-.722.513,0,1.588.1t1.607.1q.513,0,1.511-.066t1.493-.067q.361,0,.666.627.931,2,5.438,13.69Q1593.174,469.256,1593.174,469.77Zm-13.481-17.322q-.4.837-1.35,3.631a19.694,19.694,0,0,0-1.027,3.48q0,.342,1.141.38.589.038,1.94.038,1.255,0,1.388-.3a.744.744,0,0,0,.038-.266,18.533,18.533,0,0,0-.875-3.461A26.961,26.961,0,0,0,1579.693,452.448Z" transform="translate(-255.963 -0.496)" fill="#9e9e9e"/>
  </g>
</svg>
