<svg id="gift2" xmlns="http://www.w3.org/2000/svg" width="30.72" height="30" viewBox="0 0 30.72 30">
  <path id="Path_1681" data-name="Path 1681" d="M162.6,373.333H139.739a1.072,1.072,0,0,0-1.072,1.072v14.288a3.929,3.929,0,0,0,3.929,3.929h17.146a3.929,3.929,0,0,0,3.929-3.929V374.4A1.072,1.072,0,0,0,162.6,373.333Zm-21.79,2.143h20.718v13.217a1.786,1.786,0,0,1-1.786,1.786H142.6l-.117,0a1.786,1.786,0,0,1-1.669-1.782V375.476Z" transform="translate(-135.809 -362.623)" fill="#9e9e9e"/>
  <path id="Path_1682" data-name="Path 1682" d="M81.553,245.333H55.834a2.5,2.5,0,0,0-2.5,2.5v2.858a1.072,1.072,0,0,0,1.072,1.072H82.982a1.072,1.072,0,0,0,1.072-1.072v-2.858a2.5,2.5,0,0,0-2.5-2.5Zm0,2.143.064.006a.357.357,0,0,1,.293.351v1.786H55.477v-1.786a.357.357,0,0,1,.357-.357H81.553Z" transform="translate(-53.333 -238.91)" fill="#9e9e9e"/>
  <path id="Path_1683" data-name="Path 1683" d="M203.465,54.464a3.3,3.3,0,0,0,0,4.609l2.6,2.67a1.072,1.072,0,0,0,.768.324h6.063a1.072,1.072,0,0,0,.768-1.819l-5.629-5.785-.061-.061a3.186,3.186,0,0,0-4.505.061Zm3.011,1.475,3.879,3.986h-3.072L205,57.579a1.162,1.162,0,0,1,0-1.62,1.043,1.043,0,0,1,1.475-.02Z" transform="translate(-197.533 -53.5)" fill="#9e9e9e"/>
  <path id="Path_1684" data-name="Path 1684" d="M485.87,54.463l-5.629,5.785a1.072,1.072,0,0,0,.768,1.819h6.062a1.072,1.072,0,0,0,.768-.324l2.6-2.669a3.306,3.306,0,0,0,.114-4.488l-.176-.184a3.186,3.186,0,0,0-4.505.061Zm3.011,1.475.02.02.073.082a1.162,1.162,0,0,1-.073,1.538l-2.283,2.345h-3.071l3.859-3.965a1.043,1.043,0,0,1,1.475-.021Z" transform="translate(-465.649 -53.5)" fill="#9e9e9e"/>
  <path id="Path_1685" data-name="Path 1685" d="M491.739,245.333a1.072,1.072,0,0,1,1.067.969l.005.1v21.433a1.072,1.072,0,0,1-2.138.1l-.005-.1V246.4A1.072,1.072,0,0,1,491.739,245.333Z" transform="translate(-476.022 -238.91)" fill="#9e9e9e"/>
</svg>
