<svg id="github-fill" xmlns="http://www.w3.org/2000/svg" width="30" height="30" viewBox="0 0 30 30">
  <path id="github-fill_1_" data-name="github-fill (1)" d="M79,76.3A15.2,15.2,0,0,0,64,91.7a15.39,15.39,0,0,0,10.048,14.546c.788.2.667-.372.667-.764v-2.668c-4.548.547-4.732-2.544-5.037-3.061-.617-1.081-2.075-1.356-1.639-1.873,1.036-.547,2.091.138,3.315,1.993.885,1.346,2.611,1.119,3.486.9A4.372,4.372,0,0,1,76,98.671c-4.712-.868-6.676-3.821-6.676-7.333A6.887,6.887,0,0,1,70.944,86.8a6.157,6.157,0,0,1,.164-4.131c1.947-.179,3.972,1.432,4.129,1.56a15.441,15.441,0,0,1,7.588.01,6.622,6.622,0,0,1,4.065-1.511,6.2,6.2,0,0,1,.184,4.062,6.889,6.889,0,0,1,1.639,4.555c0,3.518-1.977,6.476-6.7,7.33a4.45,4.45,0,0,1,1.277,3.133v3.873c.027.31,0,.616.5.616A15.383,15.383,0,0,0,94,91.7,15.2,15.2,0,0,0,79,76.3Z" transform="translate(-64 -76.3)" fill="#9e9e9e"/>
</svg>
