<svg id="home" xmlns="http://www.w3.org/2000/svg" width="30.427" height="30" viewBox="0 0 30.427 30">
  <path id="home-2" data-name="home" d="M104.2,79.106c-2.968-2.449-7.2-6.085-12.616-10.761a2.685,2.685,0,0,0-3.414,0c-5.417,4.675-9.647,8.312-12.616,10.761a2.748,2.748,0,0,0-.891,1.855,2.471,2.471,0,0,0,2.449,2.449h1.633V95.878A1.837,1.837,0,0,0,80.6,97.733h5.566a1.837,1.837,0,0,0,1.855-1.855v-7.2h3.711v7.2a1.837,1.837,0,0,0,1.855,1.855h5.566a1.837,1.837,0,0,0,1.855-1.855V83.411h1.633a2.426,2.426,0,0,0,1.558-4.3Zm-1.558,2.078h-2a1.837,1.837,0,0,0-1.855,1.855V95.507H93.961V88.383a1.837,1.837,0,0,0-1.855-1.855H87.653A1.837,1.837,0,0,0,85.8,88.383v7.2H80.974V83.04a1.837,1.837,0,0,0-1.855-1.855h-2a.2.2,0,0,1-.223-.223c0-.074.074-.148.074-.223,2.968-2.449,7.2-6.085,12.616-10.761a.359.359,0,0,1,.519,0c5.417,4.675,9.647,8.312,12.616,10.761.074.074.074.074.074.148.074.223-.074.3-.148.3Z" transform="translate(-74.666 -67.733)" fill="#9e9e9e"/>
</svg>
