<svg xmlns="http://www.w3.org/2000/svg" width="30" height="30" viewBox="0 0 30 30">
  <g id="info1" transform="translate(0 0)">
    <path id="Path_1686" data-name="Path 1686" d="M68.333,53.333a15,15,0,1,0,15,15A15,15,0,0,0,68.333,53.333Zm0,2.093A12.907,12.907,0,1,1,55.426,68.333,12.907,12.907,0,0,1,68.333,55.426Z" transform="translate(-53.333 -53.333)" fill="#9e9e9e"/>
    <path id="Path_1687" data-name="Path 1687" d="M380.681,300.789v-.273a2.875,2.875,0,0,1,1.074-2.247q1.368-1.192,1.68-1.543a3.878,3.878,0,0,0,.723-2.4,3.526,3.526,0,0,0-1.172-2.813,4.443,4.443,0,0,0-3.086-1.035,4.7,4.7,0,0,0-3.419,1.231,4.474,4.474,0,0,0-1.27,3.4h2.227a3.194,3.194,0,0,1,.488-1.914,2.062,2.062,0,0,1,1.836-.8,2.115,2.115,0,0,1,1.563.547,2.238,2.238,0,0,1,.02,2.911l-.234.273a10.448,10.448,0,0,0-2.286,2.481,4.178,4.178,0,0,0-.391,1.914v.273h2.247Zm-1.133,3.907a1.494,1.494,0,0,0,1.074-.41,1.384,1.384,0,0,0,.449-1.074,1.434,1.434,0,0,0-.43-1.055,1.519,1.519,0,0,0-1.094-.41,1.54,1.54,0,0,0-1.074.41,1.51,1.51,0,0,0,0,2.11A1.546,1.546,0,0,0,379.548,304.7Z" transform="translate(-364.685 -282.72)" fill="#9e9e9e"/>
  </g>
</svg>
