<svg id="instagram" xmlns="http://www.w3.org/2000/svg" xmlns:xlink="http://www.w3.org/1999/xlink" width="30" height="30" viewBox="0 0 30 30">
  <defs>
    <clipPath id="clip-path">
      <rect id="Rectangle_16861" data-name="Rectangle 16861" width="30" height="30" fill="#9e9e9e"/>
    </clipPath>
  </defs>
  <g id="Group_617" data-name="Group 617" clip-path="url(#clip-path)">
    <path id="Path_8546" data-name="Path 8546" d="M25.853,21.506a4.353,4.353,0,1,0,4.352,4.352,4.347,4.347,0,0,0-4.352-4.352m0,7.181a2.829,2.829,0,1,1,2.829-2.829,2.835,2.835,0,0,1-2.829,2.829" transform="translate(-10.856 -10.858)" fill="#9e9e9e"/>
    <path id="Path_8547" data-name="Path 8547" d="M38.407,19.093a1.016,1.016,0,1,0,1.016,1.016,1.015,1.015,0,0,0-1.016-1.016" transform="translate(-18.878 -9.64)" fill="#9e9e9e"/>
    <path id="Path_8548" data-name="Path 8548" d="M15,0A15,15,0,1,0,30,15,15,15,0,0,0,15,0m8.427,18.5a5.039,5.039,0,0,1-1.369,3.557A5.044,5.044,0,0,1,18.5,23.427c-1.169.066-2.33.055-3.5.055s-2.33.01-3.5-.055a5.038,5.038,0,0,1-3.556-1.368A5.045,5.045,0,0,1,6.573,18.5c-.066-1.169-.055-2.332-.055-3.5s-.011-2.33.055-3.5A5.037,5.037,0,0,1,7.942,7.942,5.044,5.044,0,0,1,11.5,6.573c1.169-.066,2.33-.055,3.5-.055s2.33-.011,3.5.055a5.039,5.039,0,0,1,3.556,1.369A5.045,5.045,0,0,1,23.427,11.5c.066,1.169.055,2.33.055,3.5s.013,2.332-.055,3.5" transform="translate(0 0)" fill="#9e9e9e"/>
  </g>
</svg>
