<svg xmlns="http://www.w3.org/2000/svg" width="30" height="30" viewBox="0 0 30 30">
  <path id="Languagem" d="M15,0A15,15,0,1,0,30,15,15,15,0,0,0,15,0ZM27.955,14.318H23.182A17.48,17.48,0,0,0,17.891,2.38,12.955,12.955,0,0,1,27.955,14.318ZM13.636,2.727V14.318H8.864c.2-4.275,1.882-9.2,4.773-11.591Zm0,13.636V27.273C10.943,24.9,9.252,20.182,8.864,16.364Zm2.045,10.909V16.364h5.455c-.457,3.88-2.461,8.53-5.455,10.909Zm0-12.955V2.727c3.218,2.38,5.23,7.261,5.455,11.591ZM11.693,2.489C8.707,5.318,7,9.784,6.818,14.318H2.08a12.955,12.955,0,0,1,9.614-11.83ZM2.12,16.364h4.7a17.078,17.078,0,0,0,4.773,10.909A12.307,12.307,0,0,1,2.12,16.364Zm15.607,11.3a18.041,18.041,0,0,0,5.455-11.3h4.773a13.043,13.043,0,0,1-10.227,11.3Z" fill="#9e9e9e"/>
</svg>
