<svg xmlns="http://www.w3.org/2000/svg" width="16.208" height="30" viewBox="0 0 16.208 30">
  <g id="leftarrow" transform="translate(360.97 144.943) rotate(180)">
    <path id="Path_1585" data-name="Path 1585" d="M345.179,115.3a1.217,1.217,0,0,1,1.628-.084l.093.084,13.769,13.769a1.217,1.217,0,0,1-1.628,1.805l-.093-.084L345.179,117.02a1.217,1.217,0,0,1,0-1.722Z" transform="translate(-0.058)" fill="#666"/>
    <path id="Path_1586" data-name="Path 1586" d="M358.89,470.622a1.217,1.217,0,0,1,1.8,1.629l-.084.092-13.769,13.769a1.217,1.217,0,0,1-1.805-1.628l.084-.093,13.769-13.769Z" transform="translate(0 -341.529)" fill="#666"/>
  </g>
</svg>
