<svg xmlns="http://www.w3.org/2000/svg" width="204.13" height="86.334" viewBox="0 0 204.13 86.334">
  <g id="logo" transform="translate(-1222.3 -442.445)">
    <path id="Path_1" data-name="Path 1" d="M1323.584,571.895l-101.284,2.58,101.284,2.58,102.846-2.58Z" transform="translate(0 -72.169)" fill="#89cff0"/>
    <g id="Group_1" data-name="Group 1" transform="translate(1248.131 514.11)">
      <path id="Path_2" data-name="Path 2" d="M1284.264,612.221v4.964q0,.831.952.831h2.918a3.6,3.6,0,0,0,3.667-2.715v3.809h-11.124q1.5-.709,1.5-1.823V606.548q0-1.114-1.5-1.823h10.476v3.809a3.655,3.655,0,0,0-3.748-2.715h-3.141v5.308h3.3a2.355,2.355,0,0,0,1.925-1.094v3.181a2.421,2.421,0,0,0-1.925-.993Z" transform="translate(-1280.677 -604.582)" fill="#ccc"/>
      <path id="Path_3" data-name="Path 3" d="M1323.433,619.11h-1.3l-4.62-12.117a5.158,5.158,0,0,0-1.682-2.269H1321a1.907,1.907,0,0,0-1.053,1.54,1.281,1.281,0,0,0,.081.446l3.14,9.989,3.2-10.111a.992.992,0,0,0,.021-.2v-.122a1.943,1.943,0,0,0-1.074-1.54h3.505a7.715,7.715,0,0,0-1.277,2.269Z" transform="translate(-1300.277 -604.582)" fill="#ccc"/>
      <path id="Path_4" data-name="Path 4" d="M1358.38,612.221v4.964q0,.831.952.831h2.918a3.6,3.6,0,0,0,3.667-2.715v3.809h-11.124q1.5-.709,1.5-1.823V606.548q0-1.114-1.5-1.823h10.476v3.809a3.655,3.655,0,0,0-3.748-2.715h-3.141v5.308h3.3a2.356,2.356,0,0,0,1.925-1.094v3.181a2.421,2.421,0,0,0-1.925-.993Z" transform="translate(-1321.997 -604.582)" fill="#ccc"/>
      <path id="Path_5" data-name="Path 5" d="M1401.245,615.2q.851,3.222,2.756,3.911h-2.35q-2.229-.02-2.938-3.647-.506-2.391-2.147-2.8h-1.216v3.626a2.782,2.782,0,0,0,1.56,2.817h-5.126q1.479-.689,1.479-1.823V606.548q0-1.135-1.479-1.823h4.073q6.018,0,6.2,3.627,0,3.526-4.234,4.073A3.893,3.893,0,0,1,1401.245,615.2Zm-5.9-9.563v5.045q0,1.115,1.52,1.115,3-.324,3-3.08,0-3.018-3.485-3.08Z" transform="translate(-1342.62 -604.582)" fill="#ccc"/>
      <path id="Path_6" data-name="Path 6" d="M1435.694,609.13l-2.31,9.928h-1.621l-3.89-12.724a8.394,8.394,0,0,0-.933-1.661h4.721q-1.316.932-1.317,1.783l2.7,9.158,2.512-10.982h.73l3.363,11.387,2.471-9.624q0-.871-1.479-1.722h3.769a8.306,8.306,0,0,0-.871,1.661l-3.485,12.724h-1.6Z" transform="translate(-1362.22 -604.531)" fill="#ccc"/>
      <path id="Path_7" data-name="Path 7" d="M1489.9,611.819a7.971,7.971,0,0,1-1.641,5.248,5.82,5.82,0,0,1-4.842,2.006,6.113,6.113,0,0,1-5.025-2.006,7.976,7.976,0,0,1-1.641-5.248,8.408,8.408,0,0,1,1.621-5.41,5.89,5.89,0,0,1,4.842-2.006,6.164,6.164,0,0,1,5.065,2.006A8.411,8.411,0,0,1,1489.9,611.819Zm-6.483,6.363a3.353,3.353,0,0,0,3-1.661,8.714,8.714,0,0,0,1.074-4.7,8.6,8.6,0,0,0-1.216-4.7,3.572,3.572,0,0,0-3.06-1.7,3.335,3.335,0,0,0-2.979,1.662,8.8,8.8,0,0,0-1.074,4.741,8.3,8.3,0,0,0,1.237,4.64A3.528,3.528,0,0,0,1483.418,618.181Z" transform="translate(-1389.99 -604.403)" fill="#ccc"/>
      <path id="Path_8" data-name="Path 8" d="M1528.376,615.2q.851,3.222,2.756,3.911h-2.35q-2.228-.02-2.938-3.647-.507-2.391-2.148-2.8h-1.216v3.626a2.783,2.783,0,0,0,1.56,2.817h-5.126q1.479-.689,1.479-1.823V606.548q0-1.135-1.479-1.823h4.073q6.018,0,6.2,3.627,0,3.526-4.234,4.073A3.892,3.892,0,0,1,1528.376,615.2Zm-5.9-9.563v5.045q0,1.115,1.52,1.115,3-.324,3-3.08,0-3.018-3.485-3.08Z" transform="translate(-1413.496 -604.582)" fill="#ccc"/>
      <path id="Path_9" data-name="Path 9" d="M1562.98,618.016a3.606,3.606,0,0,0,3.688-2.634v3.728H1557q1.478-.689,1.479-1.823V606.548q0-1.135-1.479-1.823h5.146q-1.58.689-1.581,1.823v10.678q0,.79,1.216.79Z" transform="translate(-1434.732 -604.582)" fill="#ccc"/>
      <path id="Path_10" data-name="Path 10" d="M1596.066,604.724a7.142,7.142,0,0,1,5.207,1.965,7.474,7.474,0,0,1,1.763,5.308,7.2,7.2,0,0,1-1.763,5.126,7.034,7.034,0,0,1-5.207,1.986h-5.37q1.479-.689,1.479-1.823V606.548q0-1.135-1.479-1.823Zm-.1,13.413a4.214,4.214,0,0,0,3.505-1.74,7,7,0,0,0,1.317-4.349,7.789,7.789,0,0,0-1.317-4.612,4.055,4.055,0,0,0-3.505-1.821h-1.7v11.592q0,.931,1.357.93Z" transform="translate(-1453.516 -604.582)" fill="#ccc"/>
    </g>
    <path id="Path_11" data-name="Path 11" d="M1401.8,467.931q-7.779-20.194-9.388-23.639c-.348-.723-.734-1.083-1.148-1.083q-.856,0-2.577.116c-1.152.077-2.021.113-2.613.113-.611,0-1.537-.054-2.773-.164s-2.148-.163-2.74-.163c-.349,0-.658.414-.92,1.246q-.687,2.17-8.734,23.933-7.419,20.128-7.418,20.982,0,.949,5.023.952a55.066,55.066,0,0,0,7.484-.265q.888-.229,1.512-2.955.687-2.987,1.247-3.511a8.928,8.928,0,0,1,2.693-.262c-.182-.123-.36-.254-.527-.392a5.791,5.791,0,0,1-2.254-4.34v-2.1h15.043l-.007,2.1a5.94,5.94,0,0,1-2.8,4.75,14.276,14.276,0,0,1,2.6.178q.621.327,1.74,5.056a1.764,1.764,0,0,0,1.41,1.476,41.463,41.463,0,0,0,6.041.265,37.6,37.6,0,0,0,6.106-.265c.549-.153.821-.425.821-.822Q1409.615,488.256,1401.8,467.931Zm-12.923,6.771-.014-.027-1.221-2.478-1.516-3.082-1.494,3.039h0l-1.24,2.522-.014.029c-1.8-.766-3.019-2.458-3.019-5.413,0-4.3,5.768-12.2,5.768-12.2s5.772,7.894,5.772,12.2C1391.9,472.244,1390.675,473.936,1388.877,474.7Z" transform="translate(-78.714 -0.371)" fill="#fff"/>
    <path id="Path_12" data-name="Path 12" d="M1272.975,488.54q.064.887-.92.886a24.351,24.351,0,0,1-3.6-.722q-2.972-.721-3.661-.985a36.005,36.005,0,0,1-13.166,2.692q-10.144,0-16.646-6.763-6.435-6.665-6.435-16.842,0-10.407,6.238-17.27,6.435-7.091,16.711-7.091a23.394,23.394,0,0,1,9.39,1.9,17.8,17.8,0,0,1,7.486,5.91,2.509,2.509,0,0,1,.558,1.116q0,1.051-2.938,4.712t-3.792,3.66a6.407,6.407,0,0,1-1.511-1.346,13.887,13.887,0,0,0-3.283-2.5,11.431,11.431,0,0,0-5.516-1.346,9.414,9.414,0,0,0-7.813,3.677,13.12,13.12,0,0,0-2.692,8.438q0,5.352,2.791,8.471,2.889,3.218,8.176,3.217a20.2,20.2,0,0,0,7.486-1.674q-.1-1.084-.592-5.516a46.607,46.607,0,0,1-.427-5.516q0-.623.427-.755a1.538,1.538,0,0,1,.526-.066q.952,0,2.873.18t2.906.181q1.051,0,3.152-.148t3.152-.148q.82,0,.821,1.084,0,1.576-.18,4.76t-.18,4.761q0,4.235.624,12.673Z" transform="translate(-3.487 0)" fill="#fff"/>
    <path id="Path_13" data-name="Path 13" d="M1515.794,466.693q0,3.874.2,11.655t.2,11.655q0,.658-.3.821a6.892,6.892,0,0,1-.854.131,49.1,49.1,0,0,1-5.712.262,41.832,41.832,0,0,1-6.107-.262q-.953-.2-.952-1.018,0,.526.3-5.778.591-13.3.591-17.466,0-3.513-.23-10.539t-.23-10.539q0-.721.755-.722,1.017,0,3.07.1t3.069.1q1.017,0,3-.1t3-.1q.952,0,.952.722,0,3.514-.378,10.539T1515.794,466.693Z" transform="translate(-156.085 -1.365)" fill="#fff"/>
    <path id="Path_14" data-name="Path 14" d="M1612.587,489.142q0,.591-.821.821a37.748,37.748,0,0,1-6.107.262,41.534,41.534,0,0,1-6.041-.262,1.771,1.771,0,0,1-1.412-1.478q-1.116-4.728-1.74-5.056-.526-.229-8.8-.23-5.581,0-5.942.3-.559.526-1.248,3.513-.624,2.725-1.51,2.955a55.277,55.277,0,0,1-7.485.262q-5.024,0-5.024-.952,0-.854,7.42-20.979,8.043-21.768,8.733-23.935.394-1.247.92-1.247.886,0,2.741.164t2.774.164q.886,0,2.61-.115t2.577-.115q.623,0,1.149,1.083,1.608,3.448,9.39,23.639Q1612.587,488.256,1612.587,489.142Zm-23.278-29.909q-.689,1.445-2.331,6.271a34.041,34.041,0,0,0-1.774,6.009q0,.591,1.97.657,1.017.066,3.349.065,2.167,0,2.4-.525a1.288,1.288,0,0,0,.065-.46,31.991,31.991,0,0,0-1.51-5.975A46.48,46.48,0,0,0,1589.31,459.232Z" transform="translate(-191.872 -0.372)" fill="#fff"/>
  </g>
</svg>
