<svg xmlns="http://www.w3.org/2000/svg" width="20" height="20" viewBox="0 0 20 20">
  <path id="menuicon" d="M17.5,20H13.333a2.5,2.5,0,0,1-2.5-2.5V13.333a2.5,2.5,0,0,1,2.5-2.5H17.5a2.5,2.5,0,0,1,2.5,2.5V17.5A2.5,2.5,0,0,1,17.5,20Zm-4.167-7.5a.833.833,0,0,0-.833.833V17.5a.833.833,0,0,0,.833.833H17.5a.833.833,0,0,0,.833-.833V13.333A.833.833,0,0,0,17.5,12.5ZM6.667,20H2.5A2.5,2.5,0,0,1,0,17.5V13.333a2.5,2.5,0,0,1,2.5-2.5H6.667a2.5,2.5,0,0,1,2.5,2.5V17.5a2.5,2.5,0,0,1-2.5,2.5ZM2.5,12.5a.833.833,0,0,0-.833.833V17.5a.833.833,0,0,0,.833.833H6.667A.833.833,0,0,0,7.5,17.5V13.333a.833.833,0,0,0-.833-.833Zm15-3.333H13.333a2.5,2.5,0,0,1-2.5-2.5V2.5a2.5,2.5,0,0,1,2.5-2.5H17.5A2.5,2.5,0,0,1,20,2.5V6.667A2.5,2.5,0,0,1,17.5,9.167Zm-4.167-7.5A.833.833,0,0,0,12.5,2.5V6.667a.833.833,0,0,0,.833.833H17.5a.833.833,0,0,0,.833-.833V2.5a.833.833,0,0,0-.833-.833Zm-6.667,7.5H2.5A2.5,2.5,0,0,1,0,6.667V2.5A2.5,2.5,0,0,1,2.5,0H6.667a2.5,2.5,0,0,1,2.5,2.5V6.667a2.5,2.5,0,0,1-2.5,2.5ZM2.5,1.667a.833.833,0,0,0-.833.833V6.667A.833.833,0,0,0,2.5,7.5H6.667A.833.833,0,0,0,7.5,6.667V2.5a.833.833,0,0,0-.833-.833Z" fill="#89cff0"/>
</svg>
