<svg id="nav" xmlns="http://www.w3.org/2000/svg" width="30" height="30" viewBox="0 0 30 30">
  <path id="Path_1677" data-name="Path 1677" d="M299.679,287.989l-7.709,3.453a1.047,1.047,0,0,0-.527.527l-3.453,7.709a1.047,1.047,0,0,0,1.383,1.383l7.709-3.453a1.046,1.046,0,0,0,.527-.527l3.453-7.709A1.047,1.047,0,0,0,299.679,287.989Zm-1.649,3.031-2.168,4.841-4.841,2.168,2.168-4.841Z" transform="translate(-280.223 -280.224)" fill="#9e9e9e"/>
  <path id="Path_1678" data-name="Path 1678" d="M68.333,53.333a15,15,0,1,0,15,15A15,15,0,0,0,68.333,53.333Zm0,2.093A12.907,12.907,0,1,1,55.426,68.333,12.907,12.907,0,0,1,68.333,55.426Z" transform="translate(-53.333 -53.333)" fill="#9e9e9e"/>
</svg>
