<svg xmlns="http://www.w3.org/2000/svg" width="174.412" height="76" viewBox="0 0 174.412 76">
  <g id="radicle" transform="translate(-260 -402.191)">
    <path id="Path_468" data-name="Path 468" d="M422.335,490.523h4.234v-8.468h2.4l4.771,8.468h4.834l-5.119-8.911c3.034-.948,4.392-3.381,4.392-6.351,0-3.665-2.338-6.478-6.794-6.478h-8.721Zm4.234-17.916h4.139a2.628,2.628,0,0,1,2.844,2.875,2.7,2.7,0,0,1-2.938,2.97h-4.045Z" transform="translate(-106.158 -43.548)" fill="#9e9e9e"/>
    <path id="Path_469" data-name="Path 469" d="M475.846,485.563h8.342l1.611,4.961h4.487l-7.394-21.74h-5.5l-7.489,21.74h4.3Zm4.2-12.734,2.97,9.164h-6Z" transform="translate(-137.266 -43.548)" fill="#9e9e9e"/>
    <path id="Path_470" data-name="Path 470" d="M553.34,479.464c0-6.035-3.823-10.68-10.933-10.68H534v21.74h8.089C549.422,490.523,553.34,485.721,553.34,479.464Zm-15.1-6.857h3.982c4.645,0,6.825,3.128,6.825,6.983,0,3.95-2.244,7.11-6.952,7.11h-3.855Z" transform="translate(-179.182 -43.548)" fill="#9e9e9e"/>
    <rect id="Rectangle_16477" data-name="Rectangle 16477" width="4.234" height="21.74" transform="translate(376.59 425.236)" fill="#9e9e9e"/>
    <path id="Path_471" data-name="Path 471" d="M628.467,490.334a10.755,10.755,0,0,0,5.308-1.137v-4.013a9.49,9.49,0,0,1-4.74,1.264c-4.108,0-8.5-2.117-8.5-7.552,0-5.214,4.456-6.92,7.773-6.92a8.777,8.777,0,0,1,4.676,1.169l1.043-3.918a9.694,9.694,0,0,0-5.309-1.264c-4.866,0-12.544,2.275-12.544,11.186C616.175,487.68,623.316,490.334,628.467,490.334Z" transform="translate(-232.918 -43.011)" fill="#9e9e9e"/>
    <path id="Path_472" data-name="Path 472" d="M688.587,486.669H678.571V468.784h-4.234v21.74h13.271Z" transform="translate(-270.953 -43.548)" fill="#9e9e9e"/>
    <path id="Path_473" data-name="Path 473" d="M734.145,486.669h-9.922v-5.4h7.331l.98-3.823h-8.31v-4.8h9.542l1.011-3.855H719.989v21.74h15.2Z" transform="translate(-300.807 -43.548)" fill="#9e9e9e"/>
    <path id="Path_474" data-name="Path 474" d="M428.036,570.117h6v5.34a10.471,10.471,0,0,1-2.054.221c-4.8,0-8.942-2.244-8.942-7.489,0-5.53,4.645-7.047,8.31-7.047a11.484,11.484,0,0,1,5.5,1.359l1.011-4.013a14.02,14.02,0,0,0-6.414-1.327c-5.024,0-12.766,2.212-12.766,11.185,0,8.247,6.952,11.186,13.082,11.186a20.222,20.222,0,0,0,6.351-1.011v-12.2h-9.227Z" transform="translate(-103.77 -101.342)" fill="#9e9e9e"/>
    <path id="Path_475" data-name="Path 475" d="M489.172,557.983l-7.489,21.74h4.3l1.643-4.961h8.342l1.612,4.961h4.487l-7.394-21.74Zm-.379,13.208,3.034-9.163,2.97,9.163Z" transform="translate(-144.968 -101.879)" fill="#9e9e9e"/>
    <path id="Path_476" data-name="Path 476" d="M558.735,566.1l-4.8-8.121h-5.688v21.74h4.234V562.66l4.9,9.069h2.591l4.866-9.163v17.158h4.234v-21.74h-5.561Z" transform="translate(-188.496 -101.879)" fill="#9e9e9e"/>
    <rect id="Rectangle_16478" data-name="Rectangle 16478" width="4.234" height="21.74" transform="translate(385.121 456.104)" fill="#9e9e9e"/>
    <path id="Path_477" data-name="Path 477" d="M660.687,573.688l-7.678-15.7h-5.972v21.74h4.234V563.229l8.089,16.494h5.561v-21.74h-4.234Z" transform="translate(-253.1 -101.879)" fill="#9e9e9e"/>
    <path id="Path_478" data-name="Path 478" d="M718.051,566.325l-.853,3.792h6v5.34a10.463,10.463,0,0,1-2.054.221c-4.8,0-8.943-2.244-8.943-7.489,0-5.53,4.645-7.047,8.311-7.047a11.485,11.485,0,0,1,5.5,1.359l1.011-4.013a14.02,14.02,0,0,0-6.415-1.327c-5.024,0-12.765,2.212-12.765,11.185,0,8.247,6.951,11.186,13.082,11.186a20.223,20.223,0,0,0,6.351-1.011v-12.2Z" transform="translate(-292.865 -101.342)" fill="#9e9e9e"/>
    <path id="Path_479" data-name="Path 479" d="M296.728,462.83a33.1,33.1,0,0,0-3.434-1.867c-3-1.487-6.105-3.03-8.145-6.606a15.517,15.517,0,0,0,6.141-28.894l.026-1.586,32.354-15.011a1.58,1.58,0,0,0-.711-3.012c-.871.025-3.841-.005-7.281-.041-6.751-.07-15.153-.157-17.538.046-.076.007-.189.011-.332.017a17.116,17.116,0,0,0-6,1.175,9.437,9.437,0,0,0-1.744.981c-.41-2.42-2.236-5.449-8.724-5.729-.106,0-.19-.008-.246-.012-1.885-.16-8.476-.092-13.771-.037-2.693.028-5.019.052-5.7.032a1.58,1.58,0,0,0-.711,3.012l26.043,12.083v6.391a15.522,15.522,0,1,0-4.99,30.585c-2.04,3.576-5.141,5.118-8.146,6.606a33.089,33.089,0,0,0-3.434,1.867,15.958,15.958,0,0,0-7.176,13.2c0,.01,0,.018,0,.028,0,.065,0,.13,0,.194a1.58,1.58,0,1,0,3.159,0,13.175,13.175,0,0,1,5.744-10.774,30.905,30.905,0,0,1,3.108-1.681,25.609,25.609,0,0,0,6.755-4.358v1.541c-1.3,2.187-3.205,2.94-5.22,3.733a16.944,16.944,0,0,0-3.117,1.479,12.163,12.163,0,0,0-5.469,10.06,1.58,1.58,0,0,0,3.16,0,8.966,8.966,0,0,1,4.036-7.414,14.434,14.434,0,0,1,2.546-1.184,17.331,17.331,0,0,0,4.065-2.057v1.316a4.8,4.8,0,0,1-2.628,1.738,10.253,10.253,0,0,0-1.968.93,8.144,8.144,0,0,0-3.5,6.671,1.58,1.58,0,0,0,3.16,0,5,5,0,0,1,2.072-4.025,7.843,7.843,0,0,1,1.38-.628,15.66,15.66,0,0,0,1.489-.641v5.294a1.58,1.58,0,0,0,3.16,0v-5.294a15.663,15.663,0,0,0,1.489.641,7.843,7.843,0,0,1,1.38.628,5,5,0,0,1,2.072,4.025,1.58,1.58,0,0,0,3.16,0,8.144,8.144,0,0,0-3.5-6.671,10.253,10.253,0,0,0-1.968-.93,4.8,4.8,0,0,1-2.627-1.738v-1.316a17.324,17.324,0,0,0,4.064,2.057,14.432,14.432,0,0,1,2.546,1.184,8.967,8.967,0,0,1,4.036,7.414,1.58,1.58,0,0,0,3.16,0,12.163,12.163,0,0,0-5.469-10.06,16.945,16.945,0,0,0-3.117-1.479c-2.015-.792-3.922-1.545-5.22-3.733v-1.541a25.6,25.6,0,0,0,6.755,4.358A30.83,30.83,0,0,1,295,465.476a13.175,13.175,0,0,1,5.743,10.774,1.58,1.58,0,1,0,3.16,0A16.418,16.418,0,0,0,296.728,462.83Zm19.2-53.854-20.7,9.606,9.688-9.688c3.365,0,7.376.044,10.735.079Zm-17.983.057c.2-.009.357-.016.464-.025.44-.037,1.13-.064,2-.082l-10.292,10.292V414.35C290.118,410.953,292.6,409.263,297.944,409.033ZM281.2,405.46c5.2.225,5.8,2.29,5.8,3.824,0,1.327-.028,2.713-.06,3.874l-6.94-7.762c.335.012.612.026.818.044C280.912,405.447,281.041,405.453,281.2,405.46Zm-5.474-.109,5.1,5.7L268.643,405.4C270.959,405.377,273.523,405.354,275.73,405.351Zm-4.049,33.565a11.877,11.877,0,1,1,11.877,11.877A11.891,11.891,0,0,1,271.681,438.916Z" transform="translate(0)" fill="#9e9e9e"/>
    <path id="Path_480" data-name="Path 480" d="M334.037,516.1c1.6.193,3.475-2.65,4.487-4.438a.585.585,0,0,0-.72-.834l-5.688,2.2a.95.95,0,0,0-.495,1.33A3.1,3.1,0,0,0,334.037,516.1Z" transform="translate(-46.764 -71.014)" fill="#9e9e9e"/>
    <path id="Path_481" data-name="Path 481" d="M310.637,513.03l-5.687-2.2a.585.585,0,0,0-.72.834c1.012,1.788,2.888,4.632,4.487,4.438a3.1,3.1,0,0,0,2.415-1.738A.95.95,0,0,0,310.637,513.03Z" transform="translate(-28.872 -71.014)" fill="#9e9e9e"/>
  </g>
</svg>
