<svg id="riddet" xmlns="http://www.w3.org/2000/svg" xmlns:xlink="http://www.w3.org/1999/xlink" width="30" height="30" viewBox="0 0 30 30">
  <defs>
    <clipPath id="clip-path">
      <rect id="Rectangle_5" data-name="Rectangle 5" width="30" height="30" fill="#9e9e9e"/>
    </clipPath>
  </defs>
  <g id="Mask_Group_1" data-name="Mask Group 1" clip-path="url(#clip-path)">
    <path id="discord" d="M15,30A15,15,0,1,0,0,15,15,15,0,0,0,15,30ZM17.382,8.75a7.44,7.44,0,0,1,4.21,1.563,19.823,19.823,0,0,1,2.158,8.675,5.483,5.483,0,0,1-4.585,2.262s-.539-.64-.989-1.205a4.726,4.726,0,0,0,2.712-1.771,8.593,8.593,0,0,1-1.724.878,9.917,9.917,0,0,1-2.172.64,10.565,10.565,0,0,1-3.88-.015,12.589,12.589,0,0,1-2.2-.639,8.812,8.812,0,0,1-1.162-.544.73.73,0,0,1-.066-.038.2.2,0,0,1-.06-.045q-.216-.116-.42-.253a4.658,4.658,0,0,0,2.622,1.756c-.45.565-1,1.235-1,1.235a5.435,5.435,0,0,1-4.57-2.263,19.823,19.823,0,0,1,2.157-8.675,7.44,7.44,0,0,1,4.21-1.562l.15.179a10.112,10.112,0,0,0-3.94,1.95s.329-.179.884-.432a11.3,11.3,0,0,1,3.4-.938l.034-.005a1.318,1.318,0,0,1,.221-.025,12.273,12.273,0,0,1,7.538,1.4,10,10,0,0,0-3.731-1.889l.21-.237Zm-6.712,7.2A1.6,1.6,0,0,0,12.2,17.6a1.657,1.657,0,1,0-1.529-1.651Zm5.469,0A1.533,1.533,0,1,0,17.666,14.3a1.6,1.6,0,0,0-1.528,1.652Z" fill="#9e9e9e" fill-rule="evenodd"/>
  </g>
</svg>
