<svg id="store1" xmlns="http://www.w3.org/2000/svg" width="34.008" height="30" viewBox="0 0 34.008 30">
  <path id="Path_1679" data-name="Path 1679" d="M138.205,459.755v13.421a1.974,1.974,0,0,0,1.845,1.97l.129,0h18.947a1.974,1.974,0,0,0,1.97-1.845l0-.129V459.755h2.368v13.421a4.342,4.342,0,0,1-4.168,4.339l-.174,0H140.179a4.342,4.342,0,0,1-4.339-4.168l0-.174V459.755Z" transform="translate(-132.649 -447.519)" fill="#9e9e9e"/>
  <path id="Path_1680" data-name="Path 1680" d="M82.419,135.837H54.468a1.184,1.184,0,0,0-1.109.77l-1.474,3.944a7,7,0,0,0,3.8,8.886l.308.124.212.075a6.8,6.8,0,0,0,6.164-.939l.167-.126.017.024a7.105,7.105,0,0,0,5.824,3.032h.145l.229,0a7.1,7.1,0,0,0,5.457-2.839l.153-.214.15.114a6.8,6.8,0,0,0,6.506.834A7,7,0,0,0,85,140.55l-1.475-3.943a1.184,1.184,0,0,0-1.109-.77Zm-27.13,2.368H81.6l1.187,3.174a4.634,4.634,0,0,1-2.642,5.934A4.435,4.435,0,0,1,75,145.887a1.184,1.184,0,0,0-2.049.3,4.735,4.735,0,0,1-4.434,3.068h-.145a4.739,4.739,0,0,1-4.435-3.068,1.184,1.184,0,0,0-2.048-.3A4.434,4.434,0,0,1,57,147.406l-.257-.092-.166-.069a4.634,4.634,0,0,1-2.476-5.866l1.186-3.174Zm17.5,20.132A1.184,1.184,0,0,1,72.9,160.7l-.114.005H64.891a1.184,1.184,0,0,1-.114-2.363l.114-.005Z" transform="translate(-51.44 -135.837)" fill="#9e9e9e"/>
</svg>
