<svg id="twitter" xmlns="http://www.w3.org/2000/svg" xmlns:xlink="http://www.w3.org/1999/xlink" width="30" height="30" viewBox="0 0 30 30">
  <defs>
    <clipPath id="clip-path">
      <rect id="Rectangle_2" data-name="Rectangle 2" width="30" height="30" fill="#9e9e9e"/>
    </clipPath>
  </defs>
  <g id="Mask_Group_2" data-name="Mask Group 2" clip-path="url(#clip-path)">
    <path id="twitter-2" data-name="twitter" d="M15,30A15,15,0,1,0,0,15,15,15,0,0,0,15,30Zm6.969-17.379A9.972,9.972,0,0,1,11.754,22.5v0a10.42,10.42,0,0,1-5.5-1.557A7.363,7.363,0,0,0,11.564,19.5a3.677,3.677,0,0,1-2.077-.685,3.481,3.481,0,0,1-1.277-1.725,3.716,3.716,0,0,0,1.621-.06,3.614,3.614,0,0,1-2.067-1.2,3.4,3.4,0,0,1-.813-2.2v-.044a3.664,3.664,0,0,0,1.63.434,3.475,3.475,0,0,1-1.505-2.1,3.375,3.375,0,0,1,.393-2.53,10.137,10.137,0,0,0,3.3,2.575,10.481,10.481,0,0,0,4.1,1.052,3.369,3.369,0,0,1,.226-2.221,3.525,3.525,0,0,1,1.577-1.629A3.7,3.7,0,0,1,18.949,8.8a3.634,3.634,0,0,1,2.037,1.048A7.345,7.345,0,0,0,23.266,9a3.506,3.506,0,0,1-1.579,1.921,7.357,7.357,0,0,0,2.063-.548,7.175,7.175,0,0,1-1.791,1.8c.01.15.01.3.01.45Z" fill="#9e9e9e" fill-rule="evenodd"/>
  </g>
</svg>
