<svg id="youtube" xmlns="http://www.w3.org/2000/svg" xmlns:xlink="http://www.w3.org/1999/xlink" width="30" height="30" viewBox="0 0 30 30">
  <defs>
    <clipPath id="clip-path">
      <rect id="Rectangle_16862" data-name="Rectangle 16862" width="30" height="30" fill="#9e9e9e"/>
    </clipPath>
  </defs>
  <g id="Group_619" data-name="Group 619" clip-path="url(#clip-path)">
    <path id="Path_8549" data-name="Path 8549" d="M15,0A15,15,0,1,0,30,15,15,15,0,0,0,15,0m8.129,19.123a2.1,2.1,0,0,1-1.5,1.485A50.49,50.49,0,0,1,15,20.964a50.49,50.49,0,0,1-6.628-.356,2.1,2.1,0,0,1-1.5-1.485,22.372,22.372,0,0,1-.354-4.111,22.365,22.365,0,0,1,.354-4.11,2.134,2.134,0,0,1,1.5-1.51A50.49,50.49,0,0,1,15,9.036a50.49,50.49,0,0,1,6.628.356,2.13,2.13,0,0,1,1.5,1.51,22.4,22.4,0,0,1,.354,4.11,22.4,22.4,0,0,1-.354,4.111" transform="translate(0 0)" fill="#9e9e9e"/>
    <path id="Path_8550" data-name="Path 8550" d="M26.792,30.27l4.435-2.523-4.435-2.522Z" transform="translate(-13.527 -12.736)" fill="#9e9e9e"/>
  </g>
</svg>
